<?xml version="1.0" encoding="UTF-8" standalone="no"?>
<!DOCTYPE svg PUBLIC "-//W3C//DTD SVG 1.1//EN" "http://www.w3.org/Graphics/SVG/1.1/DTD/svg11.dtd">
<svg width="100%" height="100%" viewBox="0 0 600 70" version="1.1" xmlns="http://www.w3.org/2000/svg" xmlns:xlink="http://www.w3.org/1999/xlink" xml:space="preserve" xmlns:serif="http://www.serif.com/" style="fill-rule:evenodd;clip-rule:evenodd;stroke-linejoin:round;stroke-miterlimit:2;">
    <g transform="matrix(1,0,0,1,-1.05277,26.567)">
        <g transform="matrix(40,0,0,40,178.773,24.353)">
            <path d="M0.35,-0.023C0.255,-0.016 0.16,-0.009 0.066,-0.003C0.051,-0.254 0.035,-0.506 0.019,-0.758C0.184,-0.771 0.349,-0.784 0.516,-0.798L0.528,-0.626C0.456,-0.623 0.383,-0.619 0.309,-0.615L0.315,-0.543C0.36,-0.544 0.413,-0.548 0.473,-0.554L0.489,-0.282C0.478,-0.281 0.452,-0.279 0.411,-0.276C0.37,-0.273 0.344,-0.272 0.335,-0.271L0.35,-0.023Z" style="fill:white;fill-rule:nonzero;"/>
        </g>
        <g transform="matrix(40,0,0,40,201.653,24.353)">
            <path d="M0.612,-0.454C0.615,-0.421 0.616,-0.391 0.616,-0.364C0.616,-0.256 0.587,-0.166 0.529,-0.093C0.479,-0.031 0.41,-0 0.322,-0C0.268,-0 0.227,-0.006 0.198,-0.017C0.159,-0.033 0.125,-0.064 0.096,-0.109C0.069,-0.15 0.052,-0.181 0.045,-0.2C0.028,-0.243 0.019,-0.296 0.019,-0.36C0.019,-0.389 0.021,-0.422 0.024,-0.457C0.035,-0.565 0.044,-0.625 0.051,-0.636L0.245,-0.604C0.23,-0.533 0.222,-0.471 0.222,-0.419C0.222,-0.4 0.223,-0.38 0.224,-0.359C0.226,-0.33 0.235,-0.306 0.252,-0.285C0.271,-0.262 0.296,-0.25 0.326,-0.251C0.348,-0.252 0.368,-0.265 0.385,-0.288C0.4,-0.308 0.409,-0.329 0.413,-0.351C0.418,-0.384 0.42,-0.415 0.42,-0.443C0.42,-0.491 0.411,-0.546 0.393,-0.607L0.581,-0.631C0.588,-0.604 0.599,-0.545 0.612,-0.454Z" style="fill:white;fill-rule:nonzero;"/>
        </g>
        <g transform="matrix(40,0,0,40,228.853,24.353)">
            <path d="M0.244,-0.214C0.244,-0.213 0.237,-0.184 0.223,-0.127C0.209,-0.069 0.202,-0.039 0.202,-0.037L0.018,-0.076C0.022,-0.084 0.045,-0.179 0.086,-0.36C0.127,-0.539 0.148,-0.633 0.149,-0.641C0.2,-0.63 0.252,-0.62 0.303,-0.609C0.369,-0.595 0.416,-0.583 0.444,-0.573C0.495,-0.556 0.536,-0.534 0.566,-0.505C0.595,-0.476 0.61,-0.445 0.61,-0.411C0.61,-0.4 0.608,-0.388 0.605,-0.377C0.598,-0.351 0.584,-0.329 0.564,-0.31C0.553,-0.298 0.537,-0.287 0.517,-0.276C0.502,-0.267 0.495,-0.262 0.496,-0.259C0.497,-0.252 0.519,-0.168 0.56,-0.009L0.36,-0.005C0.36,-0.006 0.355,-0.038 0.345,-0.101C0.334,-0.164 0.328,-0.195 0.326,-0.195C0.313,-0.198 0.299,-0.201 0.286,-0.204C0.273,-0.207 0.26,-0.209 0.247,-0.212L0.244,-0.214ZM0.282,-0.386C0.303,-0.381 0.323,-0.378 0.343,-0.378C0.375,-0.378 0.393,-0.386 0.397,-0.402C0.398,-0.407 0.399,-0.412 0.399,-0.417C0.399,-0.447 0.367,-0.469 0.303,-0.484C0.291,-0.43 0.284,-0.401 0.282,-0.398L0.282,-0.386Z" style="fill:white;fill-rule:nonzero;"/>
        </g>
        <g transform="matrix(40,0,0,40,255.373,24.353)">
            <path d="M0.244,-0.214C0.244,-0.213 0.237,-0.184 0.223,-0.127C0.209,-0.069 0.202,-0.039 0.202,-0.037L0.018,-0.076C0.022,-0.084 0.045,-0.179 0.086,-0.36C0.127,-0.539 0.148,-0.633 0.149,-0.641C0.2,-0.63 0.252,-0.62 0.303,-0.609C0.369,-0.595 0.416,-0.583 0.444,-0.573C0.495,-0.556 0.536,-0.534 0.566,-0.505C0.595,-0.476 0.61,-0.445 0.61,-0.411C0.61,-0.4 0.608,-0.388 0.605,-0.377C0.598,-0.351 0.584,-0.329 0.564,-0.31C0.553,-0.298 0.537,-0.287 0.517,-0.276C0.502,-0.267 0.495,-0.262 0.496,-0.259C0.497,-0.252 0.519,-0.168 0.56,-0.009L0.36,-0.005C0.36,-0.006 0.355,-0.038 0.345,-0.101C0.334,-0.164 0.328,-0.195 0.326,-0.195C0.313,-0.198 0.299,-0.201 0.286,-0.204C0.273,-0.207 0.26,-0.209 0.247,-0.212L0.244,-0.214ZM0.282,-0.386C0.303,-0.381 0.323,-0.378 0.343,-0.378C0.375,-0.378 0.393,-0.386 0.397,-0.402C0.398,-0.407 0.399,-0.412 0.399,-0.417C0.399,-0.447 0.367,-0.469 0.303,-0.484C0.291,-0.43 0.284,-0.401 0.282,-0.398L0.282,-0.386Z" style="fill:white;fill-rule:nonzero;"/>
        </g>
        <g transform="matrix(40,0,0,40,281.893,24.353)">
            <path d="M0.171,-0.027C0.174,-0.05 0.182,-0.105 0.194,-0.193C0.195,-0.199 0.166,-0.257 0.108,-0.366C0.05,-0.473 0.019,-0.528 0.016,-0.531L0.175,-0.636C0.176,-0.633 0.225,-0.544 0.321,-0.371C0.323,-0.377 0.359,-0.413 0.428,-0.48C0.497,-0.547 0.536,-0.582 0.543,-0.585L0.683,-0.451C0.679,-0.448 0.63,-0.402 0.535,-0.312C0.44,-0.222 0.393,-0.176 0.393,-0.174C0.376,-0.068 0.368,-0.01 0.367,0.001L0.171,-0.027Z" style="fill:white;fill-rule:nonzero;"/>
        </g>
        <g transform="matrix(40,0,0,40,329.373,24.353)">
            <path d="M0.015,-0.024C0.016,-0.028 0.025,-0.154 0.042,-0.402C0.059,-0.65 0.067,-0.774 0.067,-0.775C0.083,-0.778 0.118,-0.781 0.171,-0.786C0.244,-0.792 0.303,-0.795 0.348,-0.794C0.448,-0.793 0.521,-0.776 0.568,-0.741C0.605,-0.714 0.622,-0.681 0.619,-0.64C0.616,-0.611 0.609,-0.584 0.599,-0.56C0.576,-0.503 0.538,-0.464 0.487,-0.445C0.528,-0.435 0.561,-0.413 0.585,-0.379C0.614,-0.338 0.627,-0.284 0.623,-0.217C0.616,-0.174 0.599,-0.138 0.572,-0.108C0.508,-0.035 0.401,0.001 0.252,0.001C0.181,0.001 0.102,-0.007 0.015,-0.024ZM0.225,-0.17C0.232,-0.17 0.243,-0.17 0.257,-0.169C0.27,-0.168 0.28,-0.168 0.286,-0.168C0.313,-0.168 0.333,-0.173 0.345,-0.182C0.36,-0.194 0.368,-0.217 0.369,-0.25C0.371,-0.3 0.343,-0.325 0.285,-0.325C0.27,-0.325 0.254,-0.323 0.236,-0.32L0.225,-0.17ZM0.251,-0.514C0.26,-0.513 0.269,-0.512 0.278,-0.512C0.311,-0.512 0.338,-0.521 0.357,-0.538C0.374,-0.553 0.382,-0.572 0.381,-0.593C0.379,-0.622 0.357,-0.637 0.316,-0.637C0.306,-0.637 0.295,-0.636 0.282,-0.634C0.274,-0.633 0.266,-0.632 0.259,-0.631L0.251,-0.514Z" style="fill:white;fill-rule:nonzero;"/>
        </g>
        <g transform="matrix(40,0,0,40,356.773,24.353)">
            <path d="M0.463,-0.049C0.216,-0.018 0.092,-0.002 0.092,-0.002C0.091,-0.001 0.08,-0.101 0.057,-0.301C0.034,-0.504 0.022,-0.609 0.021,-0.615L0.205,-0.638C0.205,-0.637 0.221,-0.498 0.253,-0.222C0.364,-0.236 0.42,-0.243 0.42,-0.244L0.463,-0.049Z" style="fill:white;fill-rule:nonzero;"/>
        </g>
        <g transform="matrix(40,0,0,40,376.813,24.353)">
            <path d="M0.612,-0.454C0.615,-0.421 0.616,-0.391 0.616,-0.364C0.616,-0.256 0.587,-0.166 0.529,-0.093C0.479,-0.031 0.41,-0 0.322,-0C0.268,-0 0.227,-0.006 0.198,-0.017C0.159,-0.033 0.125,-0.064 0.096,-0.109C0.069,-0.15 0.052,-0.181 0.045,-0.2C0.028,-0.243 0.019,-0.296 0.019,-0.36C0.019,-0.389 0.021,-0.422 0.024,-0.457C0.035,-0.565 0.044,-0.625 0.051,-0.636L0.245,-0.604C0.23,-0.533 0.222,-0.471 0.222,-0.419C0.222,-0.4 0.223,-0.38 0.224,-0.359C0.226,-0.33 0.235,-0.306 0.252,-0.285C0.271,-0.262 0.296,-0.25 0.326,-0.251C0.348,-0.252 0.368,-0.265 0.385,-0.288C0.4,-0.308 0.409,-0.329 0.413,-0.351C0.418,-0.384 0.42,-0.415 0.42,-0.443C0.42,-0.491 0.411,-0.546 0.393,-0.607L0.581,-0.631C0.588,-0.604 0.599,-0.545 0.612,-0.454Z" style="fill:white;fill-rule:nonzero;"/>
        </g>
        <g transform="matrix(40,0,0,40,404.013,24.353)">
            <path d="M0.433,0.002C0.414,0.001 0.341,-0.003 0.213,-0.011C0.082,-0.019 0.017,-0.023 0.018,-0.024C0.032,-0.227 0.046,-0.431 0.061,-0.634C0.194,-0.627 0.329,-0.62 0.464,-0.613L0.455,-0.474C0.397,-0.479 0.338,-0.484 0.278,-0.489L0.275,-0.43C0.311,-0.426 0.354,-0.423 0.403,-0.422L0.386,-0.202C0.377,-0.203 0.356,-0.204 0.322,-0.207C0.287,-0.209 0.266,-0.21 0.259,-0.21L0.252,-0.128C0.376,-0.119 0.439,-0.115 0.441,-0.115L0.433,0.002Z" style="fill:white;fill-rule:nonzero;"/>
        </g>
    </g>
</svg>
